# xmcd
# 
# Track frame offsets:
#     150
#     18057
#     33410
#     48862
# 
# Disc length: 831
# 
# Revision: 0
# Processed by: cddbd v1.5.2PL0 Copyright (c) Steve Scherf et al.
# Submitted via: fre:ac v1.0.17
# 
DISCID=21033d04
DTITLE=SÔNGE - EP
DYEAR=2017
DGENRE=R&B
TTITLE0=What happened
TTITLE1=Now
TTITLE2=Colorblind
TTITLE3=I Come From Pain
EXTD=
EXTT0=
EXTT1=
EXTT2=
EXTT3=
PLAYORDER=
